<svg width="500" height="500" viewBox="0 0 500 500" fill="none" xmlns="http://www.w3.org/2000/svg">
<rect width="500" height="500" rx="25" fill="white"/>
<path d="M43 320V325H48H122C126.852 325 131.185 323.104 134.879 319.776L154.001 303.841C157.7 300.759 160.6 296.821 160.6 292V208C160.6 203.179 157.7 199.241 154.001 196.159L134.879 180.224C131.185 176.897 126.852 175 122 175H48H43V180V320ZM121.037 201.7L121.116 201.772L121.199 201.841L130.799 209.841C133.5 212.092 133.8 213.487 133.8 214V286C133.8 286.513 133.5 287.908 130.799 290.159L121.199 298.159L121.116 298.228L121.037 298.3C118.882 300.259 116.844 301 114.8 301H69.8V199H114.8C116.844 199 118.882 199.741 121.037 201.7ZM305.178 306V301H300.178H232.378V261H288.978H293.978V256V242V237H288.978H232.378V199H300.178H305.178V194V180V175H300.178H210.578H205.578V180V320V325H210.578H300.178H305.178V320V306ZM430.412 178.518L395.587 290.69L360.763 178.518L359.671 175H355.987H338.188H331.263L333.441 181.573L379.841 321.573L380.977 325H384.587H406.587H410.198L411.334 321.573L457.734 181.573L459.912 175H452.988H435.188H431.504L430.412 178.518Z" fill="#1E1E1E" stroke="#1E1E1E" stroke-width="10"/>
</svg>
